<?xml version="1.0" standalone="no"?>
<!DOCTYPE svg PUBLIC "-//W3C//DTD SVG 20010904//EN"
 "http://www.w3.org/TR/2001/REC-SVG-20010904/DTD/svg10.dtd">
<svg version="1.0" xmlns="http://www.w3.org/2000/svg"
 width="471.000000pt" height="471.000000pt" viewBox="0 0 471.000000 471.000000"
 preserveAspectRatio="xMidYMid meet">
<metadata>
Created by potrace 1.11, written by Peter Selinger 2001-2013
</metadata>
<g transform="translate(0.000000,471.000000) scale(0.100000,-0.100000)"
fill="#000000" stroke="none">
<path d="M234 4679 c-83 -24 -180 -123 -204 -207 -6 -25 -10 -731 -10 -2118 0
-2334 -7 -2131 76 -2223 25 -27 68 -61 96 -75 l52 -26 2105 0 2106 0 51 24
c65 30 120 85 150 150 l24 51 0 1046 0 1046 -1152 -1153 c-797 -797 -1159
-1152 -1171 -1150 -21 3 -2327 2305 -2327 2322 0 6 522 530 1160 1163 l1159
1153 40 -34 c22 -18 545 -538 1163 -1155 l1123 -1123 3 1047 2 1048 -25 52
c-15 29 -48 72 -76 97 -92 83 113 76 -2228 75 -1218 0 -2099 -5 -2117 -10z"/>
<path d="M2043 3473 c-20 -3 -41 -14 -53 -30 -19 -24 -20 -40 -20 -269 l0
-244 -89 0 c-85 0 -91 -1 -111 -27 -20 -26 -21 -36 -18 -201 3 -169 4 -174 27
-193 19 -15 39 -19 106 -19 l84 0 3 -452 c4 -498 4 -495 70 -621 39 -72 92
-121 177 -160 60 -28 77 -32 186 -35 131 -5 230 9 390 55 213 61 215 65 146
282 -66 205 -66 205 -189 167 -101 -30 -204 -35 -239 -11 -38 27 -43 74 -43
433 l0 342 200 0 c266 0 250 -14 250 218 0 156 -2 171 -21 196 l-20 26 -205 0
-204 0 0 250 0 251 -25 24 c-24 25 -26 25 -197 23 -95 0 -188 -3 -205 -5z"/>
</g>
</svg>
